<svg xmlns="http://www.w3.org/2000/svg" width="2048" height="2048"><g stroke="#000" stroke-linecap="round" stroke-linejoin="round" stroke-width="25"><path d="M1611 1166h0a316 316 0 01-391-148h0c-47-92-104-178-169-258-254-17-550 92-744 259h0l-21-21 520-521c108 91 188 170 259 256h0c252 20 502 128 677 316h0s0 0 0 0l20 20c-48 35-98 68-151 97zm-12-25c41-23 82-48 120-75h0a1003 1003 0 00-630-303c59 75 111 155 155 240h0c56 123 233 192 355 138h0zm-572-410c-66-78-140-149-219-213L460 866h0c170-99 369-144 567-135h0z"/><path d="M437 900h0c136-60 328 12 391 149h0c47 92 104 178 169 258 254 17 550-93 744-259h0l21 21-520 520c-108-91-188-169-259-255h0c-252-20-502-129-677-317h0s0 0 0 0l-20-19c48-36 98-68 151-98zm12 25c-41 23-82 49-120 76h0c165 176 394 279 630 303-59-75-111-155-155-240h0c-56-124-233-193-355-139h0zm572 411c66 78 140 149 219 213l348-348h0c-170 99-369 143-567 135h0z"/></g></svg>